# xmcd
#
# Track frame offsets:
#	150
#	15360
#	25533
#	41075
#	51181
#	61220
#	73036
#	88473
#	105933
#	120063
#	138214
#	153333
#	169886
#	192277
#	209073
#
# Disc length: 3044 seconds
#
# Revision: 0
# Processed by: cddbd v1.5.2PL0 Copyright (c) Steve Scherf et al.
# Submitted via: EasyCDDAExtractor 12.0.0.1
#
DISCID=c20be20f
DTITLE=Grupo Surgente - Lo mejor...
DYEAR=1900
DGENRE=
TTITLE0=Cielo de ñandutíes
TTITLE1=La Pasionaria
TTITLE2=Che valle mi
TTITLE3=Despierta mi Angelina
TTITLE4=Koygua Ñemboki
TTITLE5=Esperanza mía
TTITLE6=Che rendumi María Ana
TTITLE7=A mis amigos
TTITLE8=Ansiedad
TTITLE9=Escríbeme una carta
TTITLE10=A mi novia
TTITLE11=Mujer, niña y amiga
TTITLE12=Seleccion de Boleros
TTITLE13=Seleccion de Valsecitos
TTITLE14=Seleccion de Temas
EXTD=
EXTT0=
EXTT1=
EXTT2=
EXTT3=
EXTT4=
EXTT5=
EXTT6=
EXTT7=
EXTT8=
EXTT9=
EXTT10=
EXTT11=
EXTT12=
EXTT13=
EXTT14=
PLAYORDER=
